<?xml version="1.0" encoding="UTF-8" standalone="no"?>
<!DOCTYPE svg PUBLIC "-//W3C//DTD SVG 1.1//EN"
 "http://www.w3.org/Graphics/SVG/1.1/DTD/svg11.dtd">
<!-- Generated by graphviz version 15.1.0 (20260618.0150)
 -->
<!-- Title: loop Pages: 1 -->
<svg width="587pt" height="705pt"
 viewBox="0.00 0.00 587.00 705.00" xmlns="http://www.w3.org/2000/svg" xmlns:xlink="http://www.w3.org/1999/xlink">
<g id="graph0" class="graph" transform="scale(1 1) rotate(0) translate(4 701)">
<title>loop</title>
<polygon fill="white" stroke="none" points="-4,4 -4,-701 583.3,-701 583.3,4 -4,4"/>
<!-- start -->
<g id="node1" class="node">
<title>start</title>
<path fill="#e0e0e0" stroke="#333333" d="M302.75,-697C302.75,-697 271.75,-697 271.75,-697 265.75,-697 259.75,-691 259.75,-685 259.75,-685 259.75,-673 259.75,-673 259.75,-667 265.75,-661 271.75,-661 271.75,-661 302.75,-661 302.75,-661 308.75,-661 314.75,-667 314.75,-673 314.75,-673 314.75,-685 314.75,-685 314.75,-691 308.75,-697 302.75,-697"/>
<text xml:space="preserve" text-anchor="middle" x="287.25" y="-677" font-family="Helvetica,Arial,sans-serif" font-size="10.00">进入一轮</text>
</g>
<!-- s1 -->
<g id="node2" class="node">
<title>s1</title>
<polygon fill="white" stroke="#333333" points="384.12,-636 190.38,-636 190.38,-598 384.12,-598 384.12,-636"/>
<text xml:space="preserve" text-anchor="start" x="198.38" y="-622.5" font-family="Helvetica,Arial,sans-serif" font-size="10.00">① 注入 steering 消息</text>
<text xml:space="preserve" text-anchor="start" x="198.38" y="-607.5" font-family="Helvetica,Arial,sans-serif" font-size="10.00"> &#160;&#160;&#160;（上一批工具已完成，本次调用之前）</text>
</g>
<!-- start&#45;&gt;s1 -->
<g id="edge1" class="edge">
<title>start&#45;&gt;s1</title>
<path fill="none" stroke="#333333" d="M287.25,-660.65C287.25,-656.6 287.25,-652.18 287.25,-647.77"/>
<polygon fill="#333333" stroke="#333333" points="290.75,-647.87 287.25,-637.87 283.75,-647.87 290.75,-647.87"/>
</g>
<!-- s2 -->
<g id="node3" class="node">
<title>s2</title>
<polygon fill="#f2f2f2" stroke="#333333" points="375.5,-573 199,-573 199,-535 375.5,-535 375.5,-573"/>
<text xml:space="preserve" text-anchor="start" x="207" y="-559.5" font-family="Helvetica,Arial,sans-serif" font-size="10.00">② 整形上下文</text>
<text xml:space="preserve" text-anchor="start" x="207" y="-544.5" font-family="Helvetica,Arial,sans-serif" font-size="10.00"> &#160;&#160;&#160;工具结果预算 → 裁剪 → 压缩判定</text>
</g>
<!-- s1&#45;&gt;s2 -->
<g id="edge2" class="edge">
<title>s1&#45;&gt;s2</title>
<path fill="none" stroke="#333333" d="M287.25,-597.7C287.25,-593.6 287.25,-589.14 287.25,-584.71"/>
<polygon fill="#333333" stroke="#333333" points="290.75,-584.8 287.25,-574.8 283.75,-584.8 290.75,-584.8"/>
</g>
<!-- s3 -->
<g id="node4" class="node">
<title>s3</title>
<polygon fill="#f2f2f2" stroke="#333333" points="347.38,-510 227.12,-510 227.12,-472 347.38,-472 347.38,-510"/>
<text xml:space="preserve" text-anchor="start" x="235.12" y="-496.5" font-family="Helvetica,Arial,sans-serif" font-size="10.00">③ 流式调用 LLM</text>
<text xml:space="preserve" text-anchor="start" x="235.12" y="-481.5" font-family="Helvetica,Arial,sans-serif" font-size="10.00"> &#160;&#160;&#160;StreamFn 永不 throw</text>
</g>
<!-- s2&#45;&gt;s3 -->
<g id="edge3" class="edge">
<title>s2&#45;&gt;s3</title>
<path fill="none" stroke="#333333" d="M287.25,-534.7C287.25,-530.6 287.25,-526.14 287.25,-521.71"/>
<polygon fill="#333333" stroke="#333333" points="290.75,-521.8 287.25,-511.8 283.75,-521.8 290.75,-521.8"/>
</g>
<!-- d1 -->
<g id="node5" class="node">
<title>d1</title>
<polygon fill="white" stroke="#333333" points="287.25,-447 204.5,-415.75 287.25,-384.5 370,-415.75 287.25,-447"/>
<text xml:space="preserve" text-anchor="middle" x="287.25" y="-418.82" font-family="Helvetica,Arial,sans-serif" font-size="9.00">stopReason</text>
<text xml:space="preserve" text-anchor="middle" x="287.25" y="-409.07" font-family="Helvetica,Arial,sans-serif" font-size="9.00">error / aborted？</text>
</g>
<!-- s3&#45;&gt;d1 -->
<g id="edge4" class="edge">
<title>s3&#45;&gt;d1</title>
<path fill="none" stroke="#333333" d="M287.25,-471.52C287.25,-467.53 287.25,-463.16 287.25,-458.68"/>
<polygon fill="#333333" stroke="#333333" points="290.75,-459 287.25,-449 283.75,-459 290.75,-459"/>
</g>
<!-- d2 -->
<g id="node6" class="node">
<title>d2</title>
<polygon fill="white" stroke="#333333" points="187.25,-347 117.25,-312 187.25,-277 257.25,-312 187.25,-347"/>
<text xml:space="preserve" text-anchor="middle" x="187.25" y="-316.95" font-family="Helvetica,Arial,sans-serif" font-size="9.00">按内容块扫到</text>
<text xml:space="preserve" text-anchor="middle" x="187.25" y="-303.45" font-family="Helvetica,Arial,sans-serif" font-size="9.00">tool_use？</text>
</g>
<!-- d1&#45;&gt;d2 -->
<g id="edge6" class="edge">
<title>d1&#45;&gt;d2</title>
<path fill="none" stroke="#333333" d="M265.3,-392.42C251.3,-378.17 232.96,-359.51 217.57,-343.86"/>
<polygon fill="#333333" stroke="#333333" points="220.4,-341.74 210.9,-337.06 215.41,-346.65 220.4,-341.74"/>
<text xml:space="preserve" text-anchor="middle" x="247.74" y="-363.95" font-family="Helvetica,Arial,sans-serif" font-size="9.00">否</text>
</g>
<!-- e1 -->
<g id="node13" class="node">
<title>e1</title>
<path fill="#d9d9d9" stroke="#333333" d="M393.88,-331C393.88,-331 294.62,-331 294.62,-331 288.62,-331 282.62,-325 282.62,-319 282.62,-319 282.62,-305 282.62,-305 282.62,-299 288.62,-293 294.62,-293 294.62,-293 393.88,-293 393.88,-293 399.88,-293 405.88,-299 405.88,-305 405.88,-305 405.88,-319 405.88,-319 405.88,-325 399.88,-331 393.88,-331"/>
<text xml:space="preserve" text-anchor="middle" x="344.25" y="-317.5" font-family="Helvetica,Arial,sans-serif" font-size="10.00">出口 A · 异常收尾</text>
<text xml:space="preserve" text-anchor="middle" x="344.25" y="-302.5" font-family="Helvetica,Arial,sans-serif" font-size="10.00">发 turn_end + agent_end</text>
</g>
<!-- d1&#45;&gt;e1 -->
<g id="edge5" class="edge">
<title>d1&#45;&gt;e1</title>
<path fill="none" stroke="#333333" d="M301.34,-389.6C309.54,-374.97 319.89,-356.48 328.37,-341.34"/>
<polygon fill="#333333" stroke="#333333" points="331.33,-343.23 333.16,-332.8 325.22,-339.81 331.33,-343.23"/>
<text xml:space="preserve" text-anchor="middle" x="321.96" y="-363.95" font-family="Helvetica,Arial,sans-serif" font-size="9.00">是</text>
</g>
<!-- s4 -->
<g id="node7" class="node">
<title>s4</title>
<polygon fill="#f2f2f2" stroke="#333333" points="169.75,-239.5 6.75,-239.5 6.75,-201.5 169.75,-201.5 169.75,-239.5"/>
<text xml:space="preserve" text-anchor="start" x="14.75" y="-226" font-family="Helvetica,Arial,sans-serif" font-size="10.00">④ 串行 preflight</text>
<text xml:space="preserve" text-anchor="start" x="14.75" y="-211" font-family="Helvetica,Arial,sans-serif" font-size="10.00"> &#160;&#160;&#160;查表 · 校验 · 权限（顺序确定）</text>
</g>
<!-- d2&#45;&gt;s4 -->
<g id="edge7" class="edge">
<title>d2&#45;&gt;s4</title>
<path fill="none" stroke="#333333" d="M162.78,-288.88C148.8,-276.24 131.21,-260.34 116.63,-247.16"/>
<polygon fill="#333333" stroke="#333333" points="119.33,-244.88 109.57,-240.77 114.64,-250.07 119.33,-244.88"/>
<text xml:space="preserve" text-anchor="middle" x="139.28" y="-256.45" font-family="Helvetica,Arial,sans-serif" font-size="9.00">有</text>
</g>
<!-- s8 -->
<g id="node11" class="node">
<title>s8</title>
<polygon fill="white" stroke="#333333" points="381.38,-239.5 195.12,-239.5 195.12,-201.5 381.38,-201.5 381.38,-239.5"/>
<text xml:space="preserve" text-anchor="start" x="203.12" y="-226" font-family="Helvetica,Arial,sans-serif" font-size="10.00">⑧ 恢复链（每条配熔断）</text>
<text xml:space="preserve" text-anchor="start" x="203.12" y="-211" font-family="Helvetica,Arial,sans-serif" font-size="10.00"> &#160;&#160;&#160;上下文超限 → 媒体过大 → 输出截断</text>
</g>
<!-- d2&#45;&gt;s8 -->
<g id="edge12" class="edge">
<title>d2&#45;&gt;s8</title>
<path fill="none" stroke="#333333" d="M211.96,-289.11C226.21,-276.47 244.22,-260.52 259.15,-247.28"/>
<polygon fill="#333333" stroke="#333333" points="261.25,-250.11 266.41,-240.85 256.6,-244.87 261.25,-250.11"/>
<text xml:space="preserve" text-anchor="middle" x="257.2" y="-256.45" font-family="Helvetica,Arial,sans-serif" font-size="9.00">无</text>
</g>
<!-- s5 -->
<g id="node8" class="node">
<title>s5</title>
<polygon fill="#f2f2f2" stroke="#333333" points="176.5,-176.5 0,-176.5 0,-138.5 176.5,-138.5 176.5,-176.5"/>
<text xml:space="preserve" text-anchor="start" x="8" y="-163" font-family="Helvetica,Arial,sans-serif" font-size="10.00">⑤ 并发 execute</text>
<text xml:space="preserve" text-anchor="start" x="8" y="-148" font-family="Helvetica,Arial,sans-serif" font-size="10.00"> &#160;&#160;&#160;失败一律回填 isError，不中断循环</text>
</g>
<!-- s4&#45;&gt;s5 -->
<g id="edge8" class="edge">
<title>s4&#45;&gt;s5</title>
<path fill="none" stroke="#333333" d="M88.25,-201.2C88.25,-197.1 88.25,-192.64 88.25,-188.21"/>
<polygon fill="#333333" stroke="#333333" points="91.75,-188.3 88.25,-178.3 84.75,-188.3 91.75,-188.3"/>
</g>
<!-- s6 -->
<g id="node9" class="node">
<title>s6</title>
<polygon fill="#f2f2f2" stroke="#333333" points="170.5,-101 6,-101 6,-63 170.5,-63 170.5,-101"/>
<text xml:space="preserve" text-anchor="start" x="14" y="-87.5" font-family="Helvetica,Arial,sans-serif" font-size="10.00">⑥ 按源序回填 toolResult</text>
<text xml:space="preserve" text-anchor="start" x="14" y="-72.5" font-family="Helvetica,Arial,sans-serif" font-size="10.00"> &#160;&#160;&#160;事件按完成序发，消息按源序排</text>
</g>
<!-- s5&#45;&gt;s6 -->
<g id="edge9" class="edge">
<title>s5&#45;&gt;s6</title>
<path fill="none" stroke="#333333" d="M88.25,-138.33C88.25,-130.62 88.25,-121.42 88.25,-112.76"/>
<polygon fill="#333333" stroke="#333333" points="91.75,-112.98 88.25,-102.98 84.75,-112.98 91.75,-112.98"/>
</g>
<!-- s7 -->
<g id="node10" class="node">
<title>s7</title>
<polygon fill="#f2f2f2" stroke="#333333" points="161.5,-38 15,-38 15,0 161.5,0 161.5,-38"/>
<text xml:space="preserve" text-anchor="start" x="23" y="-24.5" font-family="Helvetica,Arial,sans-serif" font-size="10.00">⑦ 注入附件与排队消息</text>
<text xml:space="preserve" text-anchor="start" x="23" y="-9.5" font-family="Helvetica,Arial,sans-serif" font-size="10.00"> &#160;&#160;&#160;必须在全部 toolResult 之后</text>
</g>
<!-- s6&#45;&gt;s7 -->
<g id="edge10" class="edge">
<title>s6&#45;&gt;s7</title>
<path fill="none" stroke="#333333" d="M88.25,-62.7C88.25,-58.6 88.25,-54.14 88.25,-49.71"/>
<polygon fill="#333333" stroke="#333333" points="91.75,-49.8 88.25,-39.8 84.75,-49.8 91.75,-49.8"/>
</g>
<!-- s7&#45;&gt;s1 -->
<g id="edge11" class="edge">
<title>s7&#45;&gt;s1</title>
<path fill="none" stroke="#333333" d="M161.94,-23.9C228.45,-28.88 319.93,-39.8 347.25,-63 396.8,-105.08 373.96,-139.74 394.25,-201.5 445.8,-358.38 488.2,-441.55 388.25,-573 382.49,-580.58 375.13,-586.84 367.02,-592"/>
<polygon fill="#333333" stroke="#333333" points="365.48,-588.85 358.51,-596.83 368.94,-594.93 365.48,-588.85"/>
<text xml:space="preserve" text-anchor="middle" x="479.44" y="-310.2" font-family="Helvetica,Arial,sans-serif" font-size="9.00">出口 C · 继续下一轮</text>
</g>
<!-- d3 -->
<g id="node12" class="node">
<title>d3</title>
<polygon fill="white" stroke="#333333" points="288.25,-175.5 223.89,-157.5 288.25,-139.5 352.61,-157.5 288.25,-175.5"/>
<text xml:space="preserve" text-anchor="middle" x="288.25" y="-155.7" font-family="Helvetica,Arial,sans-serif" font-size="9.00">有 followUp？</text>
</g>
<!-- s8&#45;&gt;d3 -->
<g id="edge13" class="edge">
<title>s8&#45;&gt;d3</title>
<path fill="none" stroke="#333333" d="M288.25,-201.2C288.25,-196.82 288.25,-192.05 288.25,-187.32"/>
<polygon fill="#333333" stroke="#333333" points="291.75,-187.47 288.25,-177.47 284.75,-187.47 291.75,-187.47"/>
</g>
<!-- d3&#45;&gt;s1 -->
<g id="edge14" class="edge">
<title>d3&#45;&gt;s1</title>
<path fill="none" stroke="#333333" d="M331.02,-164.05C390.7,-174.38 496.76,-202.72 542.25,-277 615.55,-396.68 539.32,-482.26 432.25,-573 421.32,-582.27 408.45,-589.54 394.98,-595.24"/>
<polygon fill="#333333" stroke="#333333" points="394.03,-591.85 385.99,-598.75 396.58,-598.37 394.03,-591.85"/>
<text xml:space="preserve" text-anchor="middle" x="574.8" y="-413.95" font-family="Helvetica,Arial,sans-serif" font-size="9.00">有</text>
</g>
<!-- e2 -->
<g id="node14" class="node">
<title>e2</title>
<path fill="#e6e6e6" stroke="#333333" d="M322.88,-100C322.88,-100 253.62,-100 253.62,-100 247.62,-100 241.62,-94 241.62,-88 241.62,-88 241.62,-76 241.62,-76 241.62,-70 247.62,-64 253.62,-64 253.62,-64 322.88,-64 322.88,-64 328.88,-64 334.88,-70 334.88,-76 334.88,-76 334.88,-88 334.88,-88 334.88,-94 328.88,-100 322.88,-100"/>
<text xml:space="preserve" text-anchor="middle" x="288.25" y="-80" font-family="Helvetica,Arial,sans-serif" font-size="10.00">出口 B · 正常结束</text>
</g>
<!-- d3&#45;&gt;e2 -->
<g id="edge15" class="edge">
<title>d3&#45;&gt;e2</title>
<path fill="none" stroke="#333333" d="M288.25,-139.08C288.25,-130.93 288.25,-121.02 288.25,-111.8"/>
<polygon fill="#333333" stroke="#333333" points="291.75,-111.81 288.25,-101.81 284.75,-111.81 291.75,-111.81"/>
<text xml:space="preserve" text-anchor="middle" x="292.75" y="-117.95" font-family="Helvetica,Arial,sans-serif" font-size="9.00">无</text>
</g>
</g>
</svg>
