<?xml version="1.0" encoding="UTF-8" standalone="no"?>
<!DOCTYPE svg PUBLIC "-//W3C//DTD SVG 1.1//EN"
 "http://www.w3.org/Graphics/SVG/1.1/DTD/svg11.dtd">
<!-- Generated by graphviz version 15.1.0 (20260618.0150)
 -->
<!-- Title: ladder Pages: 1 -->
<svg width="447pt" height="386pt"
 viewBox="0.00 0.00 447.00 386.00" xmlns="http://www.w3.org/2000/svg" xmlns:xlink="http://www.w3.org/1999/xlink">
<g id="graph0" class="graph" transform="scale(1 1) rotate(0) translate(4 381.5)">
<title>ladder</title>
<polygon fill="white" stroke="none" points="-4,4 -4,-381.5 443,-381.5 443,4 -4,4"/>
<!-- l1 -->
<g id="node1" class="node">
<title>l1</title>
<polygon fill="#f6f6f6" stroke="#333333" points="435.5,-377.5 3.5,-377.5 3.5,-324.5 435.5,-324.5 435.5,-377.5"/>
<text xml:space="preserve" text-anchor="start" x="11.5" y="-364" font-family="Helvetica,Arial,sans-serif" font-size="10.00">① 裁剪 prune　　　确定性 · 无模型调用 · 有损但可预测</text>
<text xml:space="preserve" text-anchor="start" x="11.5" y="-349" font-family="Helvetica,Arial,sans-serif" font-size="10.00">　　 清空旧工具输出的正文，保留调用记录本身</text>
<text xml:space="preserve" text-anchor="start" x="11.5" y="-334" font-family="Helvetica,Arial,sans-serif" font-size="10.00">　　 opencode: 跳过最近 2 轮，保护最新 40K token 的工具输出</text>
</g>
<!-- l2 -->
<g id="node2" class="node">
<title>l2</title>
<polygon fill="#eeeeee" stroke="#333333" points="435.5,-289 3.5,-289 3.5,-236 435.5,-236 435.5,-289"/>
<text xml:space="preserve" text-anchor="start" x="11.5" y="-275.5" font-family="Helvetica,Arial,sans-serif" font-size="10.00">② 摘要压缩 compaction　需模型调用 · 有损 · 不可逆</text>
<text xml:space="preserve" text-anchor="start" x="11.5" y="-260.5" font-family="Helvetica,Arial,sans-serif" font-size="10.00">　　 只摘要上一个压缩边界之后的历史（防摘要自我膨胀）</text>
<text xml:space="preserve" text-anchor="start" x="11.5" y="-245.5" font-family="Helvetica,Arial,sans-serif" font-size="10.00">　　 切点不落在 toolResult 上；摘要请求隔离缓存</text>
</g>
<!-- l1&#45;&gt;l2 -->
<g id="edge1" class="edge">
<title>l1&#45;&gt;l2</title>
<path fill="none" stroke="#333333" d="M219.5,-324.05C219.5,-316.78 219.5,-308.73 219.5,-300.93"/>
<polygon fill="#333333" stroke="#333333" points="223,-300.95 219.5,-290.95 216,-300.95 223,-300.95"/>
<text xml:space="preserve" text-anchor="middle" x="237.5" y="-304.95" font-family="Helvetica,Arial,sans-serif" font-size="9.00">仍然超限</text>
</g>
<!-- l3 -->
<g id="node3" class="node">
<title>l3</title>
<polygon fill="#e6e6e6" stroke="#333333" points="435.5,-200.5 3.5,-200.5 3.5,-147.5 435.5,-147.5 435.5,-200.5"/>
<text xml:space="preserve" text-anchor="start" x="11.5" y="-187" font-family="Helvetica,Arial,sans-serif" font-size="10.00">③ checkpoint 重建　　结构化状态替代原始历史</text>
<text xml:space="preserve" text-anchor="start" x="11.5" y="-172" font-family="Helvetica,Arial,sans-serif" font-size="10.00">　　 不删库，只插边界；下一轮只读边界之后</text>
<text xml:space="preserve" text-anchor="start" x="11.5" y="-157" font-family="Helvetica,Arial,sans-serif" font-size="10.00">　　 重建材料：checkpoint + memory + 任务清单 + 最近用户输入</text>
</g>
<!-- l2&#45;&gt;l3 -->
<g id="edge2" class="edge">
<title>l2&#45;&gt;l3</title>
<path fill="none" stroke="#333333" d="M219.5,-235.55C219.5,-228.28 219.5,-220.23 219.5,-212.43"/>
<polygon fill="#333333" stroke="#333333" points="223,-212.45 219.5,-202.45 216,-212.45 223,-212.45"/>
<text xml:space="preserve" text-anchor="middle" x="286.25" y="-216.45" font-family="Helvetica,Arial,sans-serif" font-size="9.00">有 checkpoint 可用时优先跳到 ③</text>
</g>
<!-- l4 -->
<g id="node4" class="node">
<title>l4</title>
<polygon fill="#dedede" stroke="#333333" points="435.5,-112 3.5,-112 3.5,-59 435.5,-59 435.5,-112"/>
<text xml:space="preserve" text-anchor="start" x="11.5" y="-98.5" font-family="Helvetica,Arial,sans-serif" font-size="10.00">④ 按需召回 history　　原始记录仍在，定点取回</text>
<text xml:space="preserve" text-anchor="start" x="11.5" y="-83.5" font-family="Helvetica,Arial,sans-serif" font-size="10.00">　　 FTS/BM25 搜索 → message id → around 取邻近原文</text>
<text xml:space="preserve" text-anchor="start" x="11.5" y="-68.5" font-family="Helvetica,Arial,sans-serif" font-size="10.00">　　 单次结果仍限额（如 20 KiB），防「恢复细节」再撑爆</text>
</g>
<!-- l3&#45;&gt;l4 -->
<g id="edge3" class="edge">
<title>l3&#45;&gt;l4</title>
<path fill="none" stroke="#333333" stroke-dasharray="5,2" d="M219.5,-147.05C219.5,-139.78 219.5,-131.73 219.5,-123.93"/>
<polygon fill="#333333" stroke="#333333" points="223,-123.95 219.5,-113.95 216,-123.95 223,-123.95"/>
<text xml:space="preserve" text-anchor="middle" x="260" y="-127.95" font-family="Helvetica,Arial,sans-serif" font-size="9.00">模型发现细节缺失时</text>
</g>
<!-- note -->
<g id="node5" class="node">
<title>note</title>
<polygon fill="white" stroke="#333333" points="433,-36 0,-36 0,0 439,0 439,-30 433,-36"/>
<polyline fill="none" stroke="#333333" points="433,-36 433,-30"/>
<polyline fill="none" stroke="#333333" points="439,-30 433,-30"/>
<text xml:space="preserve" text-anchor="middle" x="219.5" y="-16" font-family="Helvetica,Arial,sans-serif" font-size="10.00">第 6 章的耦合：每一级都改写历史 = 一次缓存失效。所以「什么时候做」和「做什么」同样重要。</text>
</g>
<!-- l4&#45;&gt;note -->
</g>
</svg>
