<?xml version="1.0" encoding="UTF-8" standalone="no"?>
<!DOCTYPE svg PUBLIC "-//W3C//DTD SVG 1.1//EN"
 "http://www.w3.org/Graphics/SVG/1.1/DTD/svg11.dtd">
<!-- Generated by graphviz version 15.1.0 (20260618.0150)
 -->
<!-- Title: memwrite Pages: 1 -->
<svg width="497pt" height="614pt"
 viewBox="0.00 0.00 497.00 614.00" xmlns="http://www.w3.org/2000/svg" xmlns:xlink="http://www.w3.org/1999/xlink">
<g id="graph0" class="graph" transform="scale(1 1) rotate(0) translate(4 609.75)">
<title>memwrite</title>
<polygon fill="white" stroke="none" points="-4,4 -4,-609.75 493,-609.75 493,4 -4,4"/>
<g id="clust1" class="cluster">
<title>cluster_hot</title>
<path fill="white" stroke="#888888" d="M135,-457C135,-457 384,-457 384,-457 390,-457 396,-463 396,-469 396,-469 396,-585.75 396,-585.75 396,-591.75 390,-597.75 384,-597.75 384,-597.75 135,-597.75 135,-597.75 129,-597.75 123,-591.75 123,-585.75 123,-585.75 123,-469 123,-469 123,-463 129,-457 135,-457"/>
<text xml:space="preserve" text-anchor="middle" x="259.62" y="-583.3" font-family="Helvetica,Arial,sans-serif" font-size="11.00">① 在线请求处理（会话进行中）· 无权提交长期记忆</text>
</g>
<g id="clust2" class="cluster">
<title>cluster_flush</title>
<path fill="white" stroke="#888888" d="M57,-334.75C57,-334.75 339,-334.75 339,-334.75 345,-334.75 351,-340.75 351,-346.75 351,-346.75 351,-415.5 351,-415.5 351,-421.5 345,-427.5 339,-427.5 339,-427.5 57,-427.5 57,-427.5 51,-427.5 45,-421.5 45,-415.5 45,-415.5 45,-346.75 45,-346.75 45,-340.75 51,-334.75 57,-334.75"/>
<text xml:space="preserve" text-anchor="middle" x="198.12" y="-413.05" font-family="Helvetica,Arial,sans-serif" font-size="11.00">② 压缩前保存重要上下文（flush）· 按 token 用量提前触发</text>
</g>
<g id="clust3" class="cluster">
<title>cluster_offline</title>
<path fill="white" stroke="#888888" d="M20,-71.5C20,-71.5 328,-71.5 328,-71.5 334,-71.5 340,-77.5 340,-83.5 340,-83.5 340,-293.25 340,-293.25 340,-299.25 334,-305.25 328,-305.25 328,-305.25 20,-305.25 20,-305.25 14,-305.25 8,-299.25 8,-293.25 8,-293.25 8,-83.5 8,-83.5 8,-77.5 14,-71.5 20,-71.5"/>
<text xml:space="preserve" text-anchor="middle" x="140.5" y="-290.8" font-family="Helvetica,Arial,sans-serif" font-size="11.00">③ 空闲期整理记忆 · 唯一有权提交长期记忆的进程</text>
</g>
<!-- h1 -->
<g id="node1" class="node">
<title>h1</title>
<polygon fill="#f6f6f6" stroke="#333333" points="346,-566 174,-566 174,-528 346,-528 346,-566"/>
<text xml:space="preserve" text-anchor="start" x="182" y="-552.5" font-family="Helvetica,Arial,sans-serif" font-size="10.00">只追加的事件日志</text>
<text xml:space="preserve" text-anchor="start" x="182" y="-537.5" font-family="Helvetica,Arial,sans-serif" font-size="10.00">完整保留原始事件，不修改已有记录</text>
</g>
<!-- h2 -->
<g id="node2" class="node">
<title>h2</title>
<polygon fill="#f2f2f2" stroke="#333333" points="317.12,-503 154.88,-503 154.88,-465 317.12,-465 317.12,-503"/>
<text xml:space="preserve" text-anchor="start" x="162.88" y="-489.5" font-family="Helvetica,Arial,sans-serif" font-size="10.00">待审核的记忆提议</text>
<text xml:space="preserve" text-anchor="start" x="162.88" y="-474.5" font-family="Helvetica,Arial,sans-serif" font-size="10.00">标记为暂定，不直接写入长期记忆</text>
</g>
<!-- h1&#45;&gt;h2 -->
<!-- store -->
<g id="node7" class="node">
<title>store</title>
<path fill="#d9d9d9" stroke="#333333" d="M446,-38C446,-38 142,-38 142,-38 136,-38 130,-32 130,-26 130,-26 130,-12 130,-12 130,-6 136,0 142,0 142,0 446,0 446,0 452,0 458,-6 458,-12 458,-12 458,-26 458,-26 458,-32 452,-38 446,-38"/>
<text xml:space="preserve" text-anchor="start" x="138" y="-24.5" font-family="Helvetica,Arial,sans-serif" font-size="10.00">长期记忆</text>
<text xml:space="preserve" text-anchor="start" x="138" y="-9.5" font-family="Helvetica,Arial,sans-serif" font-size="10.00">事实与偏好（可改写，记录生效时间和存储时间）｜原始事件（不可变）</text>
</g>
<!-- h1&#45;&gt;store -->
<g id="edge7" class="edge">
<title>h1&#45;&gt;store</title>
<path fill="none" stroke="#333333" stroke-dasharray="5,2" d="M339.91,-527.6C358,-518.53 372,-505.04 372,-485 372,-485 372,-485 372,-105 372,-80.39 354.03,-59.82 335.33,-45.08"/>
<polygon fill="#333333" stroke="#333333" points="337.52,-42.34 327.39,-39.22 333.36,-47.97 337.52,-42.34"/>
<text xml:space="preserve" text-anchor="middle" x="430.5" y="-252.7" font-family="Helvetica,Arial,sans-serif" font-size="9.00">直接保存原始事件（不可变）</text>
</g>
<!-- r1 -->
<g id="node3" class="node">
<title>r1</title>
<polygon fill="#eeeeee" stroke="#333333" points="326.88,-395.75 67.12,-395.75 67.12,-342.75 326.88,-342.75 326.88,-395.75"/>
<text xml:space="preserve" text-anchor="start" x="75.12" y="-382.25" font-family="Helvetica,Arial,sans-serif" font-size="10.00">插入一个提醒回合，让模型把重要上下文写入持久化存储</text>
<text xml:space="preserve" text-anchor="start" x="75.12" y="-367.25" font-family="Helvetica,Arial,sans-serif" font-size="10.00">openclaw 软阈值 4000 token</text>
<text xml:space="preserve" text-anchor="start" x="75.12" y="-352.25" font-family="Helvetica,Arial,sans-serif" font-size="10.00">压缩事件都是事后信号，无法保存已经丢失的内容</text>
</g>
<!-- h2&#45;&gt;r1 -->
<g id="edge4" class="edge">
<title>h2&#45;&gt;r1</title>
<path fill="none" stroke="#333333" d="M229.65,-464.63C224.27,-449.09 216.4,-426.33 209.73,-407.05"/>
<polygon fill="#333333" stroke="#333333" points="213.04,-405.92 206.47,-397.62 206.43,-408.21 213.04,-405.92"/>
<text xml:space="preserve" text-anchor="middle" x="241.39" y="-440.45" font-family="Helvetica,Arial,sans-serif" font-size="9.00">会话推进</text>
</g>
<!-- o1 -->
<g id="node4" class="node">
<title>o1</title>
<polygon fill="#e8e8e8" stroke="#333333" points="332.38,-273.5 15.62,-273.5 15.62,-235.5 332.38,-235.5 332.38,-273.5"/>
<text xml:space="preserve" text-anchor="start" x="23.62" y="-260" font-family="Helvetica,Arial,sans-serif" font-size="10.00">按优先级执行四项操作</text>
<text xml:space="preserve" text-anchor="start" x="23.62" y="-245" font-family="Helvetica,Arial,sans-serif" font-size="10.00">解决矛盾 ＞ 更新过时内容 ＞ 合并重复内容 ＞ 从多次事件中总结规律</text>
</g>
<!-- r1&#45;&gt;o1 -->
<g id="edge5" class="edge">
<title>r1&#45;&gt;o1</title>
<path fill="none" stroke="#333333" d="M191.72,-342.38C188.24,-325.29 183.66,-302.85 180.03,-285.05"/>
<polygon fill="#333333" stroke="#333333" points="183.48,-284.45 178.05,-275.35 176.62,-285.85 183.48,-284.45"/>
<text xml:space="preserve" text-anchor="middle" x="218.61" y="-318.2" font-family="Helvetica,Arial,sans-serif" font-size="9.00">会话结束 / 空闲</text>
</g>
<!-- o2 -->
<g id="node5" class="node">
<title>o2</title>
<polygon fill="#e4e4e4" stroke="#333333" points="326.75,-210.5 45.25,-210.5 45.25,-157.5 326.75,-157.5 326.75,-210.5"/>
<text xml:space="preserve" text-anchor="start" x="53.25" y="-197" font-family="Helvetica,Arial,sans-serif" font-size="10.00">提交条件（默认拒绝）</text>
<text xml:space="preserve" text-anchor="start" x="53.25" y="-182" font-family="Helvetica,Arial,sans-serif" font-size="10.00">openclaw：必须同时满足分数、召回次数和独立查询次数要求</text>
<text xml:space="preserve" text-anchor="start" x="53.25" y="-167" font-family="Helvetica,Arial,sans-serif" font-size="10.00">codex：没有可复用的经验时不提交任何内容</text>
</g>
<!-- o1&#45;&gt;o2 -->
<g id="edge2" class="edge">
<title>o1&#45;&gt;o2</title>
<path fill="none" stroke="#333333" d="M177.22,-235.14C177.93,-231.07 178.71,-226.61 179.5,-222.08"/>
<polygon fill="#333333" stroke="#333333" points="182.93,-222.82 181.21,-212.37 176.03,-221.61 182.93,-222.82"/>
</g>
<!-- o3 -->
<g id="node6" class="node">
<title>o3</title>
<polygon fill="#e0e0e0" stroke="#333333" points="299.12,-132.5 130.88,-132.5 130.88,-79.5 299.12,-79.5 299.12,-132.5"/>
<text xml:space="preserve" text-anchor="start" x="138.88" y="-119" font-family="Helvetica,Arial,sans-serif" font-size="10.00">限制单次修改范围</text>
<text xml:space="preserve" text-anchor="start" x="138.88" y="-104" font-family="Helvetica,Arial,sans-serif" font-size="10.00">一次最多删除或覆盖 25% 的旧条目</text>
<text xml:space="preserve" text-anchor="start" x="138.88" y="-89" font-family="Helvetica,Arial,sans-serif" font-size="10.00">每项结果必须带有源事件 ID 集合</text>
</g>
<!-- o2&#45;&gt;o3 -->
<g id="edge3" class="edge">
<title>o2&#45;&gt;o3</title>
<path fill="none" stroke="#333333" d="M195.82,-157.27C197.5,-152.86 199.28,-148.21 201.04,-143.58"/>
<polygon fill="#333333" stroke="#333333" points="204.26,-144.97 204.55,-134.38 197.72,-142.47 204.26,-144.97"/>
</g>
<!-- o3&#45;&gt;store -->
<g id="edge6" class="edge">
<title>o3&#45;&gt;store</title>
<path fill="none" stroke="#333333" d="M239.13,-79.04C248.7,-68.74 259.7,-56.9 269.33,-46.55"/>
<polygon fill="#333333" stroke="#333333" points="271.75,-49.08 275.99,-39.37 266.62,-44.31 271.75,-49.08"/>
<text xml:space="preserve" text-anchor="middle" x="272.9" y="-54.95" font-family="Helvetica,Arial,sans-serif" font-size="9.00">提交</text>
</g>
</g>
</svg>
