<?xml version="1.0" encoding="UTF-8" standalone="no"?>
<!DOCTYPE svg PUBLIC "-//W3C//DTD SVG 1.1//EN"
 "http://www.w3.org/Graphics/SVG/1.1/DTD/svg11.dtd">
<!-- Generated by graphviz version 15.1.0 (20260618.0150)
 -->
<!-- Title: delivery Pages: 1 -->
<svg width="469pt" height="479pt"
 viewBox="0.00 0.00 469.00 479.00" xmlns="http://www.w3.org/2000/svg" xmlns:xlink="http://www.w3.org/1999/xlink">
<g id="graph0" class="graph" transform="scale(1 1) rotate(0) translate(4 475)">
<title>delivery</title>
<polygon fill="white" stroke="none" points="-4,4 -4,-475 464.8,-475 464.8,4 -4,4"/>
<!-- l1 -->
<g id="node1" class="node">
<title>l1</title>
<polygon fill="#f6f6f6" stroke="#333333" points="460.8,-471 0,-471 0,-418 460.8,-418 460.8,-471"/>
<text xml:space="preserve" text-anchor="start" x="8" y="-457.5" font-family="Helvetica,Arial,sans-serif" font-size="10.00">第 1 层 · Issue 规范（人定规则）</text>
<text xml:space="preserve" text-anchor="start" x="8" y="-442.5" font-family="Helvetica,Arial,sans-serif" font-size="10.00">issue 就是发给 agent 的提示词：验收标准 · 原子化 · 指出改哪些文件</text>
<text xml:space="preserve" text-anchor="start" x="8" y="-427.5" font-family="Helvetica,Arial,sans-serif" font-size="10.00">入口表单 · 分类学 · 分诊状态机 + SLA · 意图外化</text>
</g>
<!-- l2 -->
<g id="node2" class="node">
<title>l2</title>
<polygon fill="#f0f0f0" stroke="#333333" points="460.8,-396 0,-396 0,-343 460.8,-343 460.8,-396"/>
<text xml:space="preserve" text-anchor="start" x="8" y="-382.5" font-family="Helvetica,Arial,sans-serif" font-size="10.00">第 2 层 · 规则自动化（确定性）</text>
<text xml:space="preserve" text-anchor="start" x="8" y="-367.5" font-family="Helvetica,Arial,sans-serif" font-size="10.00">凡是能写成规则的，不用人也不用 LLM</text>
<text xml:space="preserve" text-anchor="start" x="8" y="-352.5" font-family="Helvetica,Arial,sans-serif" font-size="10.00">事件驱动 · 标准动作库 · 最小权限 App token · IssueOps 状态机</text>
</g>
<!-- l1&#45;&gt;l2 -->
<g id="edge1" class="edge">
<title>l1&#45;&gt;l2</title>
<path fill="none" stroke="#333333" d="M230.4,-417.56C230.4,-414.33 230.4,-410.98 230.4,-407.63"/>
<polygon fill="#333333" stroke="#333333" points="233.9,-407.87 230.4,-397.87 226.9,-407.87 233.9,-407.87"/>
</g>
<!-- l3 -->
<g id="node3" class="node">
<title>l3</title>
<polygon fill="#e8e8e8" stroke="#333333" points="460.8,-321 0,-321 0,-268 460.8,-268 460.8,-321"/>
<text xml:space="preserve" text-anchor="start" x="8" y="-307.5" font-family="Helvetica,Arial,sans-serif" font-size="10.00">第 3 层 · Coding Agent（非确定性）</text>
<text xml:space="preserve" text-anchor="start" x="8" y="-292.5" font-family="Helvetica,Arial,sans-serif" font-size="10.00">issue/评论触发 → 一次性云沙箱 → 写码跑测试 → 开 PR</text>
<text xml:space="preserve" text-anchor="start" x="8" y="-277.5" font-family="Helvetica,Arial,sans-serif" font-size="10.00">六款产品采用相同的交付流程，主要差异是触发方式与权限限制（本书普查，2026&#45;08&#45;04）</text>
</g>
<!-- l2&#45;&gt;l3 -->
<g id="edge2" class="edge">
<title>l2&#45;&gt;l3</title>
<path fill="none" stroke="#333333" d="M230.4,-342.56C230.4,-339.33 230.4,-335.98 230.4,-332.63"/>
<polygon fill="#333333" stroke="#333333" points="233.9,-332.87 230.4,-322.87 226.9,-332.87 233.9,-332.87"/>
</g>
<!-- l4 -->
<g id="node4" class="node">
<title>l4</title>
<polygon fill="#e0e0e0" stroke="#333333" points="460.8,-246 0,-246 0,-193 460.8,-193 460.8,-246"/>
<text xml:space="preserve" text-anchor="start" x="8" y="-232.5" font-family="Helvetica,Arial,sans-serif" font-size="10.00">第 4 层 · Agentic CI/CD</text>
<text xml:space="preserve" text-anchor="start" x="8" y="-217.5" font-family="Helvetica,Arial,sans-serif" font-size="10.00">AI review 进 PR gate · CI 失败自动修 · 测试生成 · release notes</text>
<text xml:space="preserve" text-anchor="start" x="8" y="-202.5" font-family="Helvetica,Arial,sans-serif" font-size="10.00">前提：确定性基线（trunk&#45;based · 语义化发布 · 渐进交付）已经在</text>
</g>
<!-- l3&#45;&gt;l4 -->
<g id="edge3" class="edge">
<title>l3&#45;&gt;l4</title>
<path fill="none" stroke="#333333" d="M230.4,-267.56C230.4,-264.33 230.4,-260.98 230.4,-257.63"/>
<polygon fill="#333333" stroke="#333333" points="233.9,-257.87 230.4,-247.87 226.9,-257.87 233.9,-257.87"/>
</g>
<!-- gate -->
<g id="node5" class="node">
<title>gate</title>
<path fill="#c8c8c8" stroke="#333333" d="M448.8,-171C448.8,-171 12,-171 12,-171 6,-171 0,-165 0,-159 0,-159 0,-130 0,-130 0,-124 6,-118 12,-118 12,-118 448.8,-118 448.8,-118 454.8,-118 460.8,-124 460.8,-130 460.8,-130 460.8,-159 460.8,-159 460.8,-165 454.8,-171 448.8,-171"/>
<text xml:space="preserve" text-anchor="start" x="8" y="-157.5" font-family="Helvetica,Arial,sans-serif" font-size="10.00">◆ 人审 merge · 人批发布 ◆</text>
<text xml:space="preserve" text-anchor="start" x="8" y="-142.5" font-family="Helvetica,Arial,sans-serif" font-size="10.00">§16.2.3 表内六款产品默认如此，GitHub 把它做成了平台机制：</text>
<text xml:space="preserve" text-anchor="start" x="8" y="-127.5" font-family="Helvetica,Arial,sans-serif" font-size="10.00">agent 不能 approve、不能 merge；agent 的 commit 默认不触发 CI（2026&#45;03&#45;13 起管理员可关）</text>
</g>
<!-- l4&#45;&gt;gate -->
<g id="edge4" class="edge">
<title>l4&#45;&gt;gate</title>
<path fill="none" stroke="#333333" d="M230.4,-192.56C230.4,-189.33 230.4,-185.98 230.4,-182.63"/>
<polygon fill="#333333" stroke="#333333" points="233.9,-182.87 230.4,-172.87 226.9,-182.87 233.9,-182.87"/>
</g>
<!-- prod -->
<g id="node6" class="node">
<title>prod</title>
<path fill="white" stroke="#333333" d="M448.8,-96C448.8,-96 12,-96 12,-96 6,-96 0,-90 0,-84 0,-84 0,-72 0,-72 0,-66 6,-60 12,-60 12,-60 448.8,-60 448.8,-60 454.8,-60 460.8,-66 460.8,-72 460.8,-72 460.8,-84 460.8,-84 460.8,-90 454.8,-96 448.8,-96"/>
<text xml:space="preserve" text-anchor="middle" x="230.4" y="-76" font-family="Helvetica,Arial,sans-serif" font-size="10.00">生产</text>
</g>
<!-- gate&#45;&gt;prod -->
<g id="edge5" class="edge">
<title>gate&#45;&gt;prod</title>
<path fill="none" stroke="#333333" d="M230.4,-117.64C230.4,-114.4 230.4,-111.07 230.4,-107.79"/>
<polygon fill="#333333" stroke="#333333" points="233.9,-107.88 230.4,-97.88 226.9,-107.88 233.9,-107.88"/>
</g>
<!-- note -->
<g id="node7" class="node">
<title>note</title>
<polygon fill="white" stroke="#333333" points="454.8,-38 0,-38 0,0 460.8,0 460.8,-32 454.8,-38"/>
<polyline fill="none" stroke="#333333" points="454.8,-38 454.8,-32"/>
<polyline fill="none" stroke="#333333" points="460.8,-32 454.8,-32"/>
<text xml:space="preserve" text-anchor="start" x="8" y="-24.5" font-family="Helvetica,Arial,sans-serif" font-size="10.00">先在规范中定义 SLA，再由自动化规则执行并测量 SLA；</text>
<text xml:space="preserve" text-anchor="middle" x="230.4" y="-9.5" font-family="Helvetica,Arial,sans-serif" font-size="10.00">这两项稳定运行后，再接入 agent。</text>
</g>
<!-- prod&#45;&gt;note -->
</g>
</svg>
